HIERARCHY
ROOT Hips
{
	OFFSET -3.958830 18.904000 13.208200
	CHANNELS 6 Xposition Yposition Zposition Zrotation Yrotation Xrotation 
	JOINT LHipJoint
	{
		OFFSET 0.000000 0.000000 0.000000
		CHANNELS 3 Zrotation Yrotation Xrotation
		JOINT LeftUpLeg
		{
			OFFSET 1.800000 -1.400000 0.085000
			CHANNELS 3 Zrotation Yrotation Xrotation
			JOINT LeftLeg
			{
				OFFSET 2.215000 -6.000000 0.000000
				CHANNELS 3 Zrotation Yrotation Xrotation
				JOINT LeftFoot
				{
					OFFSET 2.500000 -6.900000 0.000000
					CHANNELS 3 Zrotation Yrotation Xrotation
					JOINT LeftToeBase
					{
						OFFSET 0.200000 -0.500000 1.950000
						CHANNELS 3 Zrotation Yrotation Xrotation
						End Site
						{
							OFFSET 0.000000 0.000000 0.000000
						}
					}
				}
			}
		}
	}
	JOINT RHipJoint
	{
		OFFSET 0.000000 0.000000 0.000000
		CHANNELS 3 Zrotation Yrotation Xrotation
		JOINT RightUpLeg
		{
			OFFSET -1.800000 -1.400000 0.085000
			CHANNELS 3 Zrotation Yrotation Xrotation
			JOINT RightLeg
			{
				OFFSET -2.215000 -6.000000 0.000000
				CHANNELS 3 Zrotation Yrotation Xrotation
				JOINT RightFoot
				{
					OFFSET -2.500000 -6.900000 0.000000
					CHANNELS 3 Zrotation Yrotation Xrotation
					JOINT RightToeBase
					{
						OFFSET -0.200000 -0.500000 1.950000
						CHANNELS 3 Zrotation Yrotation Xrotation
						End Site
						{
							OFFSET 0.000000 0.000000 0.000000
						}
					}
				}
			}
		}
	}
	JOINT LowerBack
	{
		OFFSET 0.000000 0.000000 0.000000
		CHANNELS 3 Zrotation Yrotation Xrotation
		JOINT Spine
		{
			OFFSET -0.087000 1.940000 -0.288900
			CHANNELS 3 Zrotation Yrotation Xrotation
			JOINT Spine1
			{
				OFFSET 0.000000 1.950000 0.060000
				CHANNELS 3 Zrotation Yrotation Xrotation
				JOINT Neck
				{
					OFFSET 0.000000 0.000000 0.000000
					CHANNELS 3 Zrotation Yrotation Xrotation
					JOINT Neck1
					{
						OFFSET 0.000000 1.600000 0.340000
						CHANNELS 3 Zrotation Yrotation Xrotation
						JOINT Head
						{
							OFFSET 0.000000 1.667000 -0.240000
							CHANNELS 3 Zrotation Yrotation Xrotation
							End Site
							{
								OFFSET 0.000000 0.000000 0.000000
							}
						}
					}
				}
				JOINT LeftShoulder
				{
					OFFSET 0.000000 0.000000 0.000000
					CHANNELS 3 Zrotation Yrotation Xrotation
					JOINT LeftArm
					{
						OFFSET 2.700000 1.550000 -0.730000
						CHANNELS 3 Zrotation Yrotation Xrotation
						JOINT LeftForeArm
						{
							OFFSET 5.450000 0.000000 0.000000
							CHANNELS 3 Zrotation Yrotation Xrotation
							JOINT LeftHand
							{
								OFFSET 3.450000 0.000000 0.000000
								CHANNELS 3 Zrotation Yrotation Xrotation
								JOINT LeftHandIndex1
								{
									OFFSET 0.750000 0.000000 0.000000
									CHANNELS 3 Zrotation Yrotation Xrotation
									End Site
									{
										OFFSET 0.000000 0.000000 0.000000
									}
								}
							}
						}
					}
				}
				JOINT RightShoulder
				{
					OFFSET 0.000000 0.000000 0.000000
					CHANNELS 3 Zrotation Yrotation Xrotation
					JOINT RightArm
					{
						OFFSET -2.700000 1.550000 -0.730000
						CHANNELS 3 Zrotation Yrotation Xrotation
						JOINT RightForeArm
						{
							OFFSET -5.450000 0.000000 0.000000
							CHANNELS 3 Zrotation Yrotation Xrotation
							JOINT RightHand
							{
								OFFSET -3.450000 0.000000 0.000000
								CHANNELS 3 Zrotation Yrotation Xrotation
								JOINT RightHandIndex1
								{
									OFFSET -0.750000 0.000000 0.000000
									CHANNELS 3 Zrotation Yrotation Xrotation
									End Site
									{
										OFFSET 0.000000 0.000000 0.000000
									}
								}
							}
						}
					}
				}
			}
		}
	}
}
MOTION
Frames: 12
Frame Time: 0.016667
-0.242860 18.028870 -6.122600 -2.454792 -11.346210 4.175080 -15.149990 12.972160 2.976094 3.300082 -1.888619 -14.531987 -7.063885 4.138391 4.932420 -0.281262 3.351673 3.522584 0.040940 0.045060 -0.114350 18.329126 -11.068076 2.388129 -7.460224 -0.415294 -6.492280 2.775872 -4.085388 9.044313 -0.093843 -3.808905 3.075555 0.168310 0.482760 0.226890 -3.559047 -1.298860 -6.695749 4.555799 2.845518 2.038081 -0.675431 2.871518 7.511873 0.063604 -1.849134 -7.530900 -4.402808 3.479258 28.531411 -1.385850 3.012520 -0.435770 -27.232321 -13.687362 2.352139 -42.594838 -19.759856 4.600483 -10.435984 -17.363803 1.155800 -4.164861 3.099218 -0.106520 0.389160 -0.188800 0.166770 27.432463 15.276895 6.277706 52.221458 8.489328 1.057262 9.062649 6.920287 -0.350647 2.501886 -1.474733 -0.127210 0.149600 0.092880 0.081700 
-0.245790 18.023180 -6.149700 -2.138709 -11.478715 3.911019 -15.152384 12.968563 2.991209 3.144258 -1.901668 -14.464732 -7.371891 4.224315 5.100796 -0.258146 3.365078 3.514047 0.021140 0.016680 -0.107730 18.318977 -11.064582 2.402406 -8.009462 -0.430009 -6.330049 3.237134 -4.187877 8.740689 -0.099964 -3.835421 3.067107 0.140220 0.465340 0.223120 -3.539800 -1.301580 -6.740681 4.510076 2.980745 2.173179 -0.685282 3.013719 7.602232 0.216430 -1.638311 -7.721244 -4.307152 3.556970 30.093421 -1.735460 3.475580 0.362370 -27.338436 -14.174902 2.462318 -42.575356 -20.115739 4.905326 -10.051406 -15.895829 1.033428 -4.164364 3.078566 -0.095290 0.379830 -0.178380 0.154310 27.252607 15.630738 6.495516 52.386933 8.375220 0.894159 8.974512 7.202775 -0.316190 2.516101 -1.460675 -0.126740 0.134830 0.092340 0.073270 
-0.259820 18.011970 -6.196820 -1.897308 -11.925068 3.578137 -15.139094 12.990246 3.028071 3.244075 -1.954323 -14.720969 -7.797083 4.350196 5.426020 -0.237652 3.380236 3.500385 0.001520 -0.011810 -0.103310 18.314551 -11.089727 2.396914 -8.276430 -0.412532 -6.565172 3.098128 -4.190699 8.959173 -0.094156 -3.791721 3.082999 0.110450 0.445760 0.211050 -3.543349 -1.312399 -6.799446 4.836495 2.973946 2.619969 -0.641645 3.020084 7.608441 0.276821 -1.761575 -7.922803 -4.888165 3.942304 32.132947 -1.842720 3.961360 1.176360 -27.213925 -14.332854 2.625131 -42.966850 -19.900224 4.922304 -9.902184 -14.961515 0.948080 -4.147262 3.054841 -0.074310 0.360750 -0.164750 0.142990 26.999618 15.911963 6.585784 52.257510 8.544248 0.699388 9.095364 7.637365 -0.259432 2.532982 -1.434645 -0.129650 0.127670 0.092290 0.064920 
-0.285640 18.011630 -6.247620 -1.750683 -12.175475 3.173275 -15.118983 13.016400 3.047083 3.352498 -1.981733 -14.960421 -7.781873 4.400955 5.759077 -0.209436 3.353693 3.504963 -0.027990 -0.045950 -0.122550 18.314575 -11.142288 2.402084 -8.295008 -0.407154 -6.803520 3.025114 -4.225804 9.415242 -0.079069 -3.770999 3.096043 0.075750 0.442690 0.200700 -3.560884 -1.266955 -6.857390 5.091753 2.861353 3.078443 -0.756296 2.914568 7.374104 0.403737 -1.391594 -7.979464 -4.592709 4.145939 34.710022 -1.455250 4.174270 2.955210 -27.879149 -14.419590 2.775239 -42.234935 -19.082823 4.481678 -9.999354 -14.292402 0.934277 -4.130952 3.054443 -0.074290 0.353390 -0.165740 0.139930 27.411644 15.781247 6.429889 52.041827 8.707512 0.656422 8.803126 7.469238 -0.222520 2.562934 -1.420653 -0.127460 0.110340 0.093120 0.070530 
-0.316600 18.000370 -6.284810 -1.662219 -13.006570 2.926040 -15.085405 13.025543 3.045446 3.598549 -1.992922 -15.246009 -7.835303 4.518225 6.410533 -0.189991 3.351711 3.499108 -0.034210 -0.056380 -0.124800 18.331331 -11.233713 2.378479 -8.244486 -0.363028 -7.402112 2.683868 -4.234790 10.392362 -0.059730 -3.741754 3.103093 0.060130 0.435110 0.197950 -3.619328 -1.120686 -6.844844 5.526654 3.040523 3.393087 -0.800876 3.069276 7.116409 0.507525 -1.077966 -7.591616 -4.275853 3.921977 36.653650 -1.431970 4.051370 4.272270 -27.938448 -13.308793 2.428322 -42.658020 -18.676935 4.393094 -10.605327 -13.620472 0.973723 -4.126838 3.059391 -0.079550 0.348810 -0.165380 0.142470 27.220692 14.547116 5.860364 52.246261 8.805547 0.398693 8.790422 8.079539 -0.226295 2.581828 -1.425657 -0.120260 0.090390 0.082070 0.076170 
-0.353390 17.981270 -6.340960 -1.427397 -13.460627 2.509726 -15.068446 13.064731 3.082358 3.986477 -2.071548 -15.801795 -8.353013 4.764895 7.353700 -0.181912 3.400387 3.461629 -0.023870 -0.045550 -0.109860 18.323392 -11.314278 2.327664 -8.371374 -0.305870 -8.176694 2.306584 -4.287620 11.908977 -0.051259 -3.691973 3.111194 0.058490 0.404820 0.187300 -3.614782 -1.075935 -6.863404 5.565649 2.892487 4.113247 -0.727866 2.951327 6.869157 0.534411 -0.872097 -7.195081 -4.276924 3.491567 39.042667 -1.546790 3.619630 4.476270 -27.772983 -12.185484 2.025264 -43.158953 -18.491387 4.384609 -10.642820 -12.392349 0.874103 -4.116859 3.029498 -0.061150 0.324210 -0.143880 0.138520 26.998058 13.376174 5.180285 52.556762 9.374998 0.213779 8.896292 8.870024 -0.191891 2.590833 -1.402592 -0.113540 0.090970 0.072220 0.071330 
-0.369290 17.968460 -6.378210 -1.192499 -13.697969 1.914418 -15.015379 13.128014 3.087830 4.019531 -2.129147 -16.238190 -8.175246 4.947620 8.641873 -0.170619 3.412837 3.448799 -0.040200 -0.069770 -0.124110 18.349017 -11.404501 2.302832 -8.700557 -0.302819 -8.458528 1.956930 -4.342769 13.000183 -0.039691 -3.695697 3.110008 0.036360 0.403370 0.171810 -3.718058 -1.048043 -6.876483 6.510896 2.474344 4.667419 -1.240916 2.599827 6.653451 0.546466 -1.222386 -7.122179 -5.336843 3.863390 41.719827 -1.125410 3.311870 5.848740 -27.687903 -11.354778 1.880878 -43.500929 -17.706265 4.195067 -11.056036 -11.287328 0.818433 -4.105652 3.018073 -0.054210 0.309550 -0.147130 0.136820 26.780057 12.719980 4.835414 52.390771 9.620563 0.009960 9.687286 9.569477 -0.105039 2.605933 -1.384896 -0.115330 0.090430 0.077230 0.075540 
-0.396420 17.947410 -6.423850 -0.986900 -13.894433 1.069558 -14.982341 13.229217 3.123092 4.409373 -2.166784 -16.546941 -8.350803 5.243405 10.071176 -0.173113 3.495455 3.386152 -0.033090 -0.075890 -0.089850 18.341003 -11.498596 2.263950 -9.139836 -0.281070 -8.831089 1.754075 -4.535948 14.836450 -0.060330 -3.703991 3.084518 0.019310 0.347610 0.162330 -3.732582 -1.087072 -6.943658 7.008432 2.196284 5.759990 -1.566441 2.443989 6.580848 0.797151 -1.297636 -7.383945 -6.100610 4.046869 45.589599 -1.447180 3.368910 5.878570 -27.362649 -11.010688 1.855442 -43.931284 -17.087954 3.945888 -11.379460 -10.448689 0.738744 -4.071940 2.976245 0.001520 0.262660 -0.103940 0.113410 25.936678 12.432886 4.810568 52.336012 9.471662 -0.613884 10.901745 11.003696 0.060217 2.604343 -1.338637 -0.111950 0.091140 0.080070 0.050650 
-0.426550 17.921300 -6.461510 -0.931271 -14.512321 0.518383 -14.937471 13.268556 3.137121 5.015163 -2.218909 -17.047754 -8.756325 5.671365 11.792145 -0.164740 3.663104 3.306616 -0.046400 -0.108330 -0.083460 18.356954 -11.573199 2.248799 -9.613939 -0.225956 -9.049622 1.881612 -4.733280 16.006879 -0.065262 -3.753763 3.053254 -0.003180 0.331810 0.154980 -3.806423 -1.035183 -6.976052 7.803612 2.161745 6.407115 -1.752024 2.483202 6.520074 0.927713 -1.554947 -7.580709 -7.027344 4.305702 48.437576 -1.615200 3.189260 6.692770 -27.235377 -10.592020 1.846386 -44.714366 -16.369789 3.754880 -11.377887 -9.588354 0.617463 -4.063690 2.949806 0.030680 0.242320 -0.096030 0.097420 25.501762 12.270433 4.800178 51.968494 9.502455 -1.034834 11.726743 12.324382 0.206336 2.599892 -1.315069 -0.119690 0.092480 0.095030 0.037240 
-0.456690 17.908800 -6.513710 -0.929829 -14.596330 -0.264956 -14.891354 13.332891 3.161154 5.461927 -2.249338 -17.384679 -8.763769 5.905769 13.037080 -0.165724 3.730622 3.244418 -0.010890 -0.075870 -0.033320 18.369583 -11.638693 2.244329 -10.059349 -0.198701 -9.112281 1.945317 -4.902987 17.029221 -0.101878 -3.779118 3.022911 0.001470 0.263020 0.148470 -3.880011 -1.042019 -7.046687 8.755661 1.737576 7.594309 -2.027334 2.171316 6.510201 1.161868 -1.799847 -7.885575 -8.078888 4.854802 52.871314 -2.148010 3.420700 6.583710 -27.396929 -10.309283 1.945803 -44.855425 -15.271015 3.223952 -11.627454 -9.221647 0.544879 -4.011724 2.922989 0.080650 0.192610 -0.042380 0.083280 25.178368 12.222806 4.618789 51.475502 10.199269 -1.206905 12.767144 13.493499 0.424889 2.604948 -1.286772 -0.104460 0.087190 0.077360 0.016110 
-0.473290 17.881430 -6.566630 -0.960918 -14.224493 -0.774738 -14.812345 13.345082 3.162301 5.620399 -2.305375 -17.803471 -8.424148 5.972912 13.953837 -0.161226 3.726243 3.228577 0.011190 -0.045080 -0.013590 18.426790 -11.725302 2.235695 -10.450658 -0.143095 -9.445463 2.115469 -5.116223 18.267983 -0.124065 -3.841127 2.991907 0.009830 0.238220 0.138270 -4.083085 -0.921893 -7.058984 10.420287 1.196439 8.594228 -2.854766 1.727224 6.572985 1.391903 -1.846786 -7.875741 -8.400741 5.574508 56.933508 -1.826430 3.585370 7.206460 -27.615052 -9.666665 1.823330 -44.821509 -14.629586 2.877379 -11.949041 -8.919081 0.515597 -3.987695 2.901842 0.094760 0.170120 -0.014960 0.086400 24.816989 11.473435 4.072357 51.333861 11.367283 -1.220001 14.188359 15.540189 0.745846 2.607481 -1.277955 -0.092870 0.094560 0.060750 0.016950 
-0.495530 17.848970 -6.636300 -0.831452 -14.092324 -1.075081 -14.753616 13.303576 3.182110 5.801709 -2.453675 -18.525812 -8.421132 6.131199 14.981375 -0.179215 3.787387 3.186936 0.017370 -0.044660 -0.001790 18.472286 -11.804865 2.224357 -10.823496 -0.021455 -10.043429 2.224278 -5.296532 19.422161 -0.135280 -3.897566 2.951759 0.012210 0.228390 0.134710 -4.238667 -0.725527 -7.068194 11.503210 1.043803 9.387982 -3.724248 1.661064 6.628667 1.747057 -1.233739 -7.757798 -6.939644 5.622426 60.187815 -1.065940 3.760870 7.721290 -27.621588 -9.128014 1.606875 -44.907462 -14.355821 2.670919 -11.918607 -8.165408 0.399285 -3.990342 2.879147 0.119790 0.157700 -0.003280 0.078690 24.060283 10.368620 3.520332 52.319721 12.132783 -1.448040 14.253324 17.483384 0.894731 2.597614 -1.264245 -0.099930 0.100490 0.066790 0.005390 
